<svg version="1.2" xmlns="http://www.w3.org/2000/svg" viewBox="0 0 469 105" width="469" height="105">
	<title>Magic</title>
	<style>
		.s0 { fill: #ffffff } 
	</style>
	<path id="Magic" fill-rule="evenodd" class="s0" d="m105.4 2.8h31.3l-19.2 98.7h-25.6l11.4-58.7-32.2 49h-18.9l-13.1-49.1-11.4 58.8h-25.7l19.1-98.7h31.3l15.9 55.1zm95.7 98.7l-3.1-15.8h-39.9l-8.5 15.8h-29.9l58.3-98.7h30.1l24.3 98.7zm-31.2-37.2h23.9l-6.3-32.5zm130-14h25.2l-8.1 40.2q-8.8 5.7-20 9.3-11.2 3.6-21.5 3.6-14 0-25-6-11-6.1-17.1-16.7-6.1-10.6-6.1-24 0-15.6 8-28.4 8-12.7 21.9-20 13.8-7.4 30.6-7.4 11.2 0 22.1 4.1 10.8 4.1 18 11.1l-18.6 20q-4.6-4.9-11.2-7.9-6.5-2.9-13-2.9-7.5 0-13.9 3.9-6.4 3.8-10.1 10.6-3.7 6.7-3.7 14.8 0 6.9 2.9 12.5 2.8 5.6 8 8.8 5.3 3.2 11.7 3.2 6.2 0 14.9-3.8zm71.2-47.6l-19.7 98.7h-29.2l19.7-98.7zm57.4-1.8q11.1 0 21.7 4.7 10.5 4.8 17.4 12.8l-19.1 20.2q-4.1-6.2-10.1-9.8-6-3.6-12-3.6-7.1 0-13.1 3.8-6.1 3.8-9.6 10.4-3.6 6.6-3.6 14.7 0 6.7 2.6 12.1 2.7 5.3 7.6 8.4 4.8 3.1 10.9 3.1 5.7 0 12.4-3.2 6.7-3.1 12.2-8.3l15.1 18q-8.9 8.7-20.8 13.9-11.9 5.2-23 5.2-13.8 0-24.5-6-10.7-6.1-16.7-16.7-5.9-10.6-5.9-24.1 0-15.7 7.8-28.4 7.8-12.7 21.2-20 13.5-7.2 29.5-7.2z"/>
</svg>